<svg fill="none" stroke="currentColor" stroke-width="34" stroke-linecap="round" stroke-linejoin="round" height="1em" style="flex:none;line-height:1" viewBox="0 0 596 683" width="1em" xmlns="http://www.w3.org/2000/svg"><title>SGLang</title><path d="M482.943 195.5C482.943 283.043 379.597 370.586 276.25 370.586"></path><path d="M195.25 316.5C262.575 316.5 329.901 417.048 329.901 517.595"></path><path d="M30.2499 316C30.2499 270.437 67.1864 233.5 112.75 233.5 158.313 233.5 195.25 270.437 195.25 316 195.25 361.564 158.313 398.5 112.75 398.5 67.1864 398.5 30.2499 361.564 30.2499 316Z"></path><path d="M400.25 113C400.25 67.4365 437.187 30.5 482.75 30.5 528.314 30.5 565.25 67.4365 565.25 113 565.25 158.563 528.314 195.5 482.75 195.5 437.187 195.5 400.25 158.563 400.25 113Z"></path><path d="M237.25 539.334C237.25 527.275 247.025 517.5 259.084 517.5L400.417 517.5C412.475 517.5 422.25 527.275 422.25 539.334L422.25 626.666C422.25 638.725 412.475 648.5 400.417 648.5L259.084 648.5C247.025 648.5 237.25 638.725 237.25 626.666Z"></path><g stroke-width="27"><path d="M312 556 288 584 312 612"></path><path d="M324 616 340 552"></path><path d="M352 556 376 584 352 612"></path></g></svg>